<mxfile host="app.diagrams.net" modified="2023-09-06T15:02:14.922Z" agent="Mozilla/5.0 (Macintosh; Intel Mac OS X 10_15_7) AppleWebKit/537.36 (KHTML, like Gecko) Chrome/116.0.0.0 Safari/537.36" etag="2RKaCMDaQZQuHwfP0gud" version="21.6.9" type="device">
  <diagram name="Seite-1" id="8kuXxvjcDy6w4I1sC6yL">
    <mxGraphModel dx="1412" dy="707" grid="1" gridSize="10" guides="1" tooltips="1" connect="1" arrows="1" fold="1" page="1" pageScale="1" pageWidth="827" pageHeight="1169" math="0" shadow="0">
      <root>
        <mxCell id="0" />
        <mxCell id="1" parent="0" />
        <mxCell id="FWUvMrQkgFRxplU0hNNj-13" value="" style="rounded=1;whiteSpace=wrap;html=1;fillColor=none;dashed=1;dashPattern=12 12;" parent="1" vertex="1">
          <mxGeometry width="650" height="350" as="geometry" />
        </mxCell>
        <mxCell id="FWUvMrQkgFRxplU0hNNj-1" value="&lt;h1&gt;&lt;font color=&quot;#660066&quot;&gt;Envoy Filter&lt;/font&gt;&lt;/h1&gt;" style="rounded=1;whiteSpace=wrap;html=1;strokeWidth=2;fillWeight=4;hachureGap=8;hachureAngle=45;fillColor=#fff2cc;sketch=1;shadow=0;glass=0;strokeColor=#d6b656;" parent="1" vertex="1">
          <mxGeometry x="20" y="20" width="280" height="60" as="geometry" />
        </mxCell>
        <mxCell id="FWUvMrQkgFRxplU0hNNj-2" value="" style="shape=flexArrow;endArrow=classic;html=1;rounded=0;exitX=1;exitY=0.5;exitDx=0;exitDy=0;entryX=0;entryY=0.5;entryDx=0;entryDy=0;width=6.129032258064516;endSize=3.967741935483871;" parent="1" source="FWUvMrQkgFRxplU0hNNj-1" target="FWUvMrQkgFRxplU0hNNj-5" edge="1">
          <mxGeometry width="50" height="50" relative="1" as="geometry">
            <mxPoint x="660" y="780" as="sourcePoint" />
            <mxPoint x="430" y="50" as="targetPoint" />
          </mxGeometry>
        </mxCell>
        <mxCell id="FWUvMrQkgFRxplU0hNNj-5" value="&lt;h1&gt;&lt;font color=&quot;#660066&quot;&gt;collector-go&lt;/font&gt;&lt;/h1&gt;" style="rounded=1;whiteSpace=wrap;html=1;strokeWidth=2;fillWeight=4;hachureGap=8;hachureAngle=45;fillColor=#f8cecc;sketch=1;shadow=0;glass=0;strokeColor=#b85450;" parent="1" vertex="1">
          <mxGeometry x="350" y="20" width="280" height="60" as="geometry" />
        </mxCell>
        <mxCell id="FWUvMrQkgFRxplU0hNNj-7" value="&lt;h1 style=&quot;border-color: var(--border-color);&quot;&gt;&lt;font style=&quot;border-color: var(--border-color);&quot; color=&quot;#660066&quot;&gt;rabbitmq&lt;/font&gt;&lt;/h1&gt;" style="rhombus;whiteSpace=wrap;html=1;strokeWidth=2;fillWeight=4;hachureGap=8;fillStyle=cross-hatch;fillColor=#d5e8d4;sketch=1;strokeColor=#82b366;rounded=1;hachureAngle=45;shadow=0;glass=0;" parent="1" vertex="1">
          <mxGeometry x="400" y="140" width="180" height="70" as="geometry" />
        </mxCell>
        <mxCell id="FWUvMrQkgFRxplU0hNNj-8" value="&lt;h1&gt;&lt;font color=&quot;#660066&quot;&gt;consumer&lt;/font&gt;&lt;/h1&gt;" style="rounded=1;whiteSpace=wrap;html=1;strokeWidth=2;fillWeight=4;hachureGap=8;hachureAngle=45;fillColor=#f8cecc;sketch=1;shadow=0;glass=0;strokeColor=#b85450;" parent="1" vertex="1">
          <mxGeometry x="350" y="270" width="280" height="60" as="geometry" />
        </mxCell>
        <mxCell id="FWUvMrQkgFRxplU0hNNj-9" value="&lt;h1&gt;&lt;font color=&quot;#660066&quot;&gt;Hawk-Service&lt;/font&gt;&lt;/h1&gt;" style="rounded=1;whiteSpace=wrap;html=1;strokeWidth=2;fillWeight=4;hachureGap=8;hachureAngle=45;fillColor=#dae8fc;sketch=1;shadow=0;glass=0;strokeColor=#6c8ebf;" parent="1" vertex="1">
          <mxGeometry x="355" y="465" width="270" height="60" as="geometry" />
        </mxCell>
        <mxCell id="FWUvMrQkgFRxplU0hNNj-10" value="" style="shape=flexArrow;endArrow=classic;html=1;rounded=0;entryX=0.5;entryY=0;entryDx=0;entryDy=0;width=6.129032258064516;endSize=3.967741935483871;" parent="1" target="FWUvMrQkgFRxplU0hNNj-9" edge="1">
          <mxGeometry width="50" height="50" relative="1" as="geometry">
            <mxPoint x="490" y="330" as="sourcePoint" />
            <mxPoint x="370" y="210" as="targetPoint" />
          </mxGeometry>
        </mxCell>
        <mxCell id="FWUvMrQkgFRxplU0hNNj-11" value="" style="endArrow=classic;startArrow=classic;html=1;rounded=0;entryX=0.5;entryY=1;entryDx=0;entryDy=0;exitX=0.5;exitY=0;exitDx=0;exitDy=0;" parent="1" source="FWUvMrQkgFRxplU0hNNj-8" target="FWUvMrQkgFRxplU0hNNj-7" edge="1">
          <mxGeometry width="50" height="50" relative="1" as="geometry">
            <mxPoint x="410" y="270" as="sourcePoint" />
            <mxPoint x="460" y="220" as="targetPoint" />
          </mxGeometry>
        </mxCell>
        <mxCell id="FWUvMrQkgFRxplU0hNNj-12" value="" style="endArrow=classic;startArrow=classic;html=1;rounded=0;entryX=0.5;entryY=0;entryDx=0;entryDy=0;exitX=0.5;exitY=1;exitDx=0;exitDy=0;" parent="1" source="FWUvMrQkgFRxplU0hNNj-5" target="FWUvMrQkgFRxplU0hNNj-7" edge="1">
          <mxGeometry width="50" height="50" relative="1" as="geometry">
            <mxPoint x="410" y="270" as="sourcePoint" />
            <mxPoint x="460" y="220" as="targetPoint" />
          </mxGeometry>
        </mxCell>
        <mxCell id="FWUvMrQkgFRxplU0hNNj-17" value="" style="rounded=1;whiteSpace=wrap;html=1;fillColor=none;dashed=1;dashPattern=12 12;" parent="1" vertex="1">
          <mxGeometry y="420" width="650" height="120" as="geometry" />
        </mxCell>
        <mxCell id="FWUvMrQkgFRxplU0hNNj-18" value="&lt;h1&gt;hawk-envoy-plugin&lt;/h1&gt;&lt;p&gt;Extention for istio envoy to allow tracing personal data between rest microservices in kubernetes&lt;/p&gt;" style="text;html=1;strokeColor=none;fillColor=none;spacing=5;spacingTop=-20;whiteSpace=wrap;overflow=hidden;rounded=0;" parent="1" vertex="1">
          <mxGeometry x="30" y="260" width="280" height="80" as="geometry" />
        </mxCell>
        <mxCell id="FWUvMrQkgFRxplU0hNNj-19" value="&lt;h1&gt;hawk&lt;/h1&gt;&lt;p&gt;Service for collecting traces of personal data&amp;nbsp;&lt;/p&gt;" style="text;html=1;strokeColor=none;fillColor=none;spacing=5;spacingTop=-20;whiteSpace=wrap;overflow=hidden;rounded=0;" parent="1" vertex="1">
          <mxGeometry x="30" y="465" width="280" height="65" as="geometry" />
        </mxCell>
      </root>
    </mxGraphModel>
  </diagram>
</mxfile>
